<?xml version="1.0" encoding="UTF-8"?>
<svg id="Calque_2" data-name="Calque 2" xmlns="http://www.w3.org/2000/svg" viewBox="0 0 2573.19 2569.22">
  <defs>
    <style>
      .cls-1 {
        fill: #e40e20;
      }
      @media (prefers-color-scheme: dark) {
        .cls-1 {
          fill: #ffffff;
        }
      }
    </style>
  </defs>
  <g id="Calque_1-2" data-name="Calque 1">
    <path class="cls-1" d="M1271.67,2561.7c-198.02,37.21-370.31-72.13-551.79-142.43-92.35-35.84-186.07-68.92-271.53-121.29-194.34-119.91-334.02-281.64-408.45-502.17C-17.53,1626.73-.07,1458.12,13.71,1288.12c6.89-87.29,20.67-174.13,29.4-261.42,11.49-118.08,51.92-227.42,106.59-331.26,21.59-40.43,12.4-67.08-15.62-102.46C16.01,445.5-21.66,285.62,73.44,110.57,123.06,18.68,207.14-2.91,293.51.3c146.56,5.51,242.13,84.54,300.94,214.56,15.62,34.92,28.94,54.67,80.4,32.62,210.88-89.59,431.42-140.13,662.98-129.56,197.56,9.19,386.85,52.84,568.33,130.94,34.92,15.16,52.38,18.84,71.21-24.81,20.67-48.7,57.89-90.51,92.81-132.32,88.67-105.67,208.13-97.86,319.31-77.65,78.56,14.24,129.1,90.05,150.24,170.45,39.05,147.02,5.97,281.64-90.05,398.34-33.54,40.43-45.94,69.38-16.54,123.59,79.94,146.56,102.46,310.12,123.59,473.69,14.7,112.56,7.35,225.59,14.7,338.15,14.7,218.24-63.86,400.63-196.18,567.87-112.56,142.89-262.34,230.18-426.36,297.72-115.78,47.78-232.48,94.19-348.72,141.05-102.92,41.35-210.43,45.48-329.88,36.3l1.38.46Z"/>
  </g>
</svg>